<?xml version="1.0" encoding="UTF-8"?>
<svg id="Layer_1" data-name="Layer 1" xmlns="http://www.w3.org/2000/svg" viewBox="0 0 2000 1500">
  <defs>
    <style>
      .cls-1 {
        fill: #f84f46;
      }

      .cls-2 {
        fill: #748b56;
      }

      .cls-3 {
        fill: #fff;
      }

      .cls-4 {
        fill: #eacdc5;
      }

      .cls-5 {
        fill: #231f20;
      }

      .cls-6 {
        fill: #ac5753;
      }

      .cls-7 {
        fill: #5b2448;
      }

      .cls-8 {
        fill: #f0a646;
      }

      .cls-9 {
        fill: #219fa9;
      }
    </style>
  </defs>
  <rect id="background" class="cls-4" x="0" y="0" width="2000" height="1500" transform="translate(2000 1500) rotate(-180)"/>
  <g id="plant">
    <g>
      <path class="cls-2" d="M1162.2341,676.9724c-31.571-24.0235-69.282-27.5737-84.23-7.9294-14.948,19.6441-1.4723,55.0439,30.0987,79.0673,31.571,24.0235,69.282,27.5737,84.2299,7.9294,14.948-19.6442,1.4724-55.0438-30.0986-79.0673ZM1119.2599,723.2372c-.3754,1.8484-5.2748,2.4138-10.9432,1.2627-5.6684-1.151-9.9594-3.5825-9.5841-5.431.3754-1.8484,5.2749-2.4137,10.9433-1.2627,5.6684,1.1511,9.9594,3.5825,9.584,5.431ZM1158.6801,758.3324c-3.4562,1.1286-6.8797.1397-7.6466-2.2087-.7668-2.3484,1.4132-5.1672,4.8695-6.2958,3.4562-1.1285,6.8797-.1397,7.6466,2.2088.7668,2.3484-1.4133,5.1671-4.8695,6.2957ZM1168.1919,710.8783c-1.6037.5237-3.5285-.9651-4.2993-3.3253-.7707-2.3601-.0953-4.6979,1.5084-5.2216,1.6036-.5237,3.5285.9651,4.2991,3.3252.7707,2.3602.0955,4.698-1.5082,5.2217Z"/>
      <path class="cls-2" d="M1130.6158,625.6961c25.7915,22.9672,56.2496,30.8615,68.0298,17.6326,11.7803-13.229.4219-42.5717-25.3698-65.5388-25.7915-22.9672-56.2496-30.8615-68.0298-17.6326-11.7803,13.2289-.4219,42.5717,25.3698,65.5388ZM1162.7356,594.1428c.1704-2.231,1.3393-3.9609,2.6109-3.8639,1.2716.0971,2.1643,1.9845,1.994,4.2156-.1704,2.231-1.3393,3.9609-2.6109,3.8639-1.2716-.097-2.1644-1.9844-1.994-4.2155ZM1129.3894,607.2789c.2382-.9269,1.7496-1.3396,3.376-.9217s2.7517,1.508,2.5136,2.435-1.7497,1.3397-3.376.9217c-1.6264-.4179-2.7517-1.508-2.5136-2.435ZM1128.7494,572.3675c1.87-2.0999,6.3728-1.1426,10.0574,2.1385,3.6845,3.281,5.1554,7.6432,3.2854,9.7432-1.87,2.0999-6.3728,1.1426-10.0574-2.1385-3.6845-3.281-5.1555-7.6432-3.2854-9.7432Z"/>
      <path class="cls-2" d="M1254.9608,708.8713c10.6263,18.4052,43.2198,19.4812,72.7997,2.4033,29.5799-17.078,44.9447-45.8428,34.3185-64.248-10.6263-18.4053-43.2198-19.4812-72.7997-2.4033-29.5799,17.078-44.9448,45.8428-34.3185,64.248ZM1330.2245,682.3581c0-1.6871,2.0127-3.0546,4.4955-3.0546s4.4955,1.3675,4.4955,3.0546c0,1.687-2.0127,3.0546-4.4955,3.0546s-4.4955-1.3676-4.4955-3.0546ZM1295.8556,703.511c1.5592-2.9676,6.3637-3.5132,10.7312-1.2185,4.3675,2.2947,6.644,6.5607,5.0849,9.5284-1.5592,2.9676-6.3638,3.5131-10.7313,1.2185-4.3675-2.2947-6.644-6.5607-5.0848-9.5284ZM1278.0078,660.0034c1.7291-.9982,4.3217.2554,5.791,2.8,1.4691,2.5446,1.2585,5.4168-.4706,6.4151s-4.3217-.2553-5.7909-2.7999c-1.4692-2.5447-1.2585-5.4168.4705-6.4151Z"/>
      <path class="cls-2" d="M1187.255,477.8749c0,47.6285,18.8448,86.239,42.0911,86.239,23.2463,0,42.0911-38.6105,42.0911-86.239,0-47.6285-18.8448-86.239-42.0911-86.239s-42.0911,38.6105-42.0911,86.239ZM1244.2049,439.5898c4.3354-4.8205,10.1183-6.6881,12.9166-4.1715,2.7982,2.5167,1.5521,8.4646-2.7833,13.2851-4.3354,4.8205-10.1183,6.6882-12.9166,4.1715-2.7983-2.5166-1.5522-8.4646,2.7833-13.2851ZM1230.4318,418.6071c0-4.396,1.9229-7.9596,4.2948-7.9596s4.2948,3.5636,4.2948,7.9596-1.9229,7.9596-4.2948,7.9596-4.2948-3.5636-4.2948-7.9596ZM1205.1597,519.9377c1.4765-.7594,3.7288.6768,5.0307,3.208,1.3018,2.5312,1.1603,5.1987-.3162,5.9582-1.4765.7594-3.7288-.6769-5.0307-3.208s-1.1603-5.1987.3162-5.9581ZM1200.8739,467.7252c-4.4536-7.7139-5.0898-15.6844-1.421-17.8026,3.6688-2.1183,10.2534,2.418,14.707,10.1319,4.4536,7.714,5.0898,15.6844,1.421,17.8027-3.6688,2.1182-10.2534-2.4181-14.707-10.132Z"/>
      <path class="cls-2" d="M1258.8441,608.4369c10.0272,13.1146,40.3963,6.7415,67.8316-14.2347,27.4352-20.9762,41.5473-48.6124,31.5202-61.727-10.0272-13.1147-40.3963-6.7415-67.8316,14.2347-27.4352,20.9762-41.5473,48.6124-31.5202,61.727ZM1322.1417,549.2507c-2.0241,3.5057-5.0193,5.5658-6.69,4.6012-1.6707-.9646-1.3843-4.5885.6398-8.0943,2.0241-3.5057,5.0193-5.5658,6.69-4.6012,1.6707.9646,1.3843,4.5885-.6398,8.0943ZM1310.6402,583.5327c4.4828-2.2076,9.3401-1.5131,10.849,1.5511,1.509,3.0641-.9018,7.3378-5.3846,9.5453-4.4828,2.2076-9.3401,1.5131-10.849-1.5511s.9018-7.3378,5.3846-9.5453Z"/>
    </g>
    <g>
      <path d="M1229.1725,808.785c-.6991,0-1.2649-.5657-1.2649-1.2649v-326.5528c0-.6985.5657-1.2649,1.2649-1.2649s1.2649.5663,1.2649,1.2649v326.5528c0,.6991-.5657,1.2649-1.2649,1.2649Z"/>
      <path d="M1229.1713,781.1481c-.2606,0-.5237-.0803-.7485-.247l-91.3929-67.3413c-.5633-.4144-.6831-1.2062-.268-1.7688.4138-.5626,1.208-.6812,1.7676-.268l91.3929,67.3425c.5633.4138.6831,1.2056.268,1.7676-.247.3372-.6312.5151-1.0191.5151Z"/>
      <path d="M1229.1738,735.1089c-.3953,0-.7831-.184-1.0302-.5299-.4064-.5682-.2742-1.3587.294-1.7639l86.5817-61.8458c.567-.4058,1.3575-.2748,1.7639.2946.4064.5682.2742,1.3581-.294,1.7645l-86.5817,61.8445c-.2223.1593-.4793.2359-.7337.2359Z"/>
      <path d="M1229.1713,661.5816c-.2545,0-.5126-.0766-.7362-.2365l-77.6498-55.6598c-.567-.407-.6979-1.1975-.2903-1.7651s1.1957-.6991,1.7651-.2915l77.6498,55.6598c.567.407.6979,1.1975.2903,1.7651-.247.3446-.6349.5281-1.0289.5281Z"/>
      <path d="M1229.1738,629.2848c-.4027,0-.798-.1908-1.0425-.5472-.3965-.5756-.252-1.3631.3236-1.7596l92.7665-63.9061c.5756-.3959,1.3637-.2501,1.759.3242.3965.5756.252,1.3631-.3236,1.7596l-92.7665,63.9061c-.2186.1507-.4694.223-.7164.223Z"/>
    </g>
    <g>
      <path class="cls-6" d="M1176.4894,912.2828v-90.4824c0-7.0842,5.7429-12.8271,12.8271-12.8271h79.7109c7.0842,0,12.8271,5.7429,12.8271,12.8271v90.4824h-105.3651Z"/>
      <path d="M1281.8548,913.5479h-105.3658c-.6991,0-1.2649-.5657-1.2649-1.2649v-90.4826c0-7.7708,6.3219-14.0927,14.0927-14.0927h79.7102c7.7708,0,14.0927,6.3219,14.0927,14.0927v90.4826c0,.6991-.5657,1.2649-1.2649,1.2649ZM1177.7539,911.0182h102.836v-89.2177c0-6.3762-5.1867-11.5629-11.5629-11.5629h-79.7102c-6.3762,0-11.5629,5.1867-11.5629,11.5629v89.2177Z"/>
    </g>
  </g>
  <g id="woman">
    <path d="M851.1063,1143.2382s-9.7278,19.0757-67.6858,2.0759"/>
    <path d="M953.2704,1140.2353s-19.4596,22.0786-77.4176,5.0787"/>
    <g>
      <path class="cls-4" d="M943.0975,1219.5365c-.6723-84.7361,8.8625-460.2192,8.8625-460.2192l-104.818,42.3761,48.9913,417.8431h46.9642Z"/>
      <path d="M943.0973,1220.8467h-46.9638c-.6645,0-1.2241-.4978-1.3013-1.1574l-48.9914-417.8426c-.0686-.5867.2631-1.1463.8103-1.3674l104.8179-42.3768c.4076-.1668.8739-.1149,1.2371.1371s.575.6695.5639,1.1105c-.0957,3.7551-9.5267,376.4305-8.8627,460.1762.0031.3483-.134.6843-.3798.9326s-.5806.3879-.9301.3879ZM897.2989,1218.2256h44.4785c-.5361-83.0144,8.0777-427.3773,8.8226-456.9461l-102.0405,41.254,48.7394,415.6921Z"/>
    </g>
    <g>
      <path class="cls-4" d="M839.2646,1207.3496l28.8283-439.3325-96.951-9.9842s17.6859,393.2502,22.6997,449.3167h45.423Z"/>
      <path d="M839.2646,1208.6143h-45.4229c-.6547,0-1.2013-.5003-1.2599-1.1525-4.9588-55.4529-22.5268-445.4387-22.7034-449.3717-.0167-.3681.1278-.7238.3953-.9771.268-.252.6331-.3706.9981-.3385l96.9508,9.9843c.6769.0704,1.1772.6621,1.1327,1.3415l-28.8283,439.3318c-.0439.6645-.596,1.1821-1.2624,1.1821ZM795.001,1206.0846h43.079l28.6708-436.933-94.279-9.7101c1.184,26.2349,17.6019,389.0854,22.5292,446.6431Z"/>
    </g>
    <path d="M948.8638,1206.5129c6.9123,4.8285,14.6991,7.6536,23.1608,10.2093,14.6308,4.419,40.641,10.7139,39.7078,30.5163-.1339,2.8493-.7568,5.8317-2.6638,7.9531-2.0628,2.2947-5.2835,3.1904-8.3626,3.3906-18.4837,1.2016-37.4298-.0943-55.9537-.1638-13.1038-.0492-38.3354.7838-51.4435.8142-4.309.01-7.7363-3.6051-7.4478-7.9044,0,0,2.902-40.7872,6.9607-42.8245,0,0,31.3027,16.9525,48.6061,1.7741.797-9.7149,7.4359-3.7648,7.4359-3.7648Z"/>
    <path d="M840.3467,1200.0876c2.0506,4.8437,13.1128,32.71,16.1868,42.4444,2.2819,7.226-.0707,12.3223-1.8286,14.8607-.8009,1.1565-2.1126,1.84-3.5194,1.84,0,0-4.5532,0-11.1384,0h-46.8135c-6.5852,0-11.1384,0-11.1384,0-1.4068,0-2.7184-.6834-3.5194-1.84-1.7579-2.5384-4.1105-7.6346-1.8286-14.8607,3.074-9.7343,14.1362-37.6007,16.1868-42.4444h1.6664s17.3034-11.8565,44.283-.4727l1.4631.4727Z"/>
    <path class="cls-8" d="M809.9384,593.7243c-.1775.0738-.3502.1518-.5178.2342-4.6968,2.309-.8694,3.3745-3.6878,7.7845-44.1058,69.0119-53.2948,142.4704-49.9029,221.4997,1.9719,45.9466,3.9468,91.8931,5.9222,137.8395,2.4833,57.759,4.9678,115.5179,7.4536,173.2768.2636,6.1251,5.3061,10.9552,11.4368,10.9552h61.887c6.2029,0,11.2773-4.9405,11.443-11.1412l7.6833-287.3773,6.1955,287.3182c.1342,6.2245,5.2186,11.2004,11.4445,11.2004h70.386c6.3929,0,11.547-5.2291,11.4458-11.6213-1.0997-69.499-6.7906-429.1332-7.7276-488.3071-.078-4.9288-3.3025-9.2453-8.0038-10.7274-16.9392-5.3401-33.8783-10.6802-50.8174-16.0204-15.8327-4.9914-69.0842-31.3766-84.6405-24.9136Z"/>
    <path d="M961.3116,657.4796c-94.6224,10.5504-166.762-18.9854-177.0539-23.4767,0,0,48.1655,44.402,148.8102,35.1536,32.3419-6.5159,28.2437-11.6769,28.2437-11.6769Z"/>
    <path d="M843.7139,1146.3145h-60.9004c-.5522,0-1-.4473-1-1s.4478-1,1-1h60.9004c5.0444,0,9.1392-3.9492,9.3223-8.9902l14.9302-411.9492c.02-.5518.5044-.9878,1.0356-.9634.5522.02.9834.4839.9634,1.0356l-14.9302,411.9492c-.2227,6.1221-5.1953,10.918-11.3213,10.918Z"/>
    <path d="M949.6816,1146.3145h-71.5205c-6.0913,0-11.1538-4.9551-11.2852-11.0449l-2.9229-135.5459c-.0117-.5518.4263-1.0098.9785-1.0215.5259-.0049,1.0088.4268,1.0215.9785l2.9229,135.5459c.1079,5.0107,4.2734,9.0879,9.2852,9.0879h71.5205c.5522,0,1,.4473,1,1s-.4478,1-1,1Z"/>
    <path d="M1010.1723,300.491s5.7593-48.2752-36.3631-59.8108c-17.0567-4.6711-47.7841-5.5998-65.2617,11.4738-25.6842,25.0905-31.5544,76.6953,4.4788,111.0736"/>
    <g>
      <ellipse class="cls-4" cx="904.8019" cy="315.2822" rx="10.7668" ry="9.159" transform="translate(556.7237 1207.9809) rotate(-87.9095)"/>
      <path d="M904.7028,327.3908c-.1143,0-.2285-.0025-.3428-.0062-5.787-.2118-10.2974-5.8123-10.0541-12.485.2446-6.6733,5.17-11.9088,10.9373-11.7198,5.787.2118,10.2974,5.813,10.0541,12.4856h0c-.1167,3.1924-1.292,6.1644-3.3104,8.3686-1.9899,2.1728-4.5648,3.3567-7.2841,3.3567ZM904.9054,305.8602c-4.2016,0-7.7282,4.041-7.9147,9.1376-.189,5.1923,3.1603,9.5446,7.4669,9.7021,2.0647.0679,4.0157-.8066,5.548-2.4803,1.5879-1.7343,2.5137-4.0966,2.6069-6.6517.189-5.1929-3.1603-9.5458-7.4669-9.7033-.0803-.0025-.1606-.0043-.2403-.0043ZM913.9546,315.6166h.0124-.0124Z"/>
    </g>
    <path d="M907.0102,313.5118c-.4039,0-.806-.1612-1.1031-.4799-.7232-.7776-1.8368-1.2-2.8848-1.1111-.8233.0692-1.5582-.541-1.6299-1.3692-.0723-.8288.541-1.5582,1.3692-1.6299,1.9912-.1735,3.9898.5978,5.3504,2.0597.5657.609.5318,1.5613-.0772,2.1277-.2897.2693-.6578.4027-1.0246.4027Z"/>
    <g>
      <path class="cls-4" d="M894.0235,416.1691c12.0728-9.5882,22.9247-72.7503,22.9247-72.7503l38.2772,19.1971s-14.2687,50.5858-16.7604,63.0377c0,0,17.4239,11.2397,7.6034,22.6072-9.8206,11.3674-37.5471-.0331-50.7852-19.7554l-1.2596-12.3361Z"/>
      <path d="M934.665,454.1172c-.5213,0-1.0524-.0161-1.5934-.0494-13.4392-.8165-29.8004-11.2516-38.904-24.8138-.1229-.1828-.1983-.3928-.2211-.6121l-1.2593-12.3362c-.0463-.4558.1427-.9036.5009-1.1883,11.5376-9.1635,22.3285-71.2995,22.436-71.9258.0723-.4194.3385-.78.7183-.9715.3786-.1927.827-.1933,1.2081-.0019l38.2771,19.1966c.5756.2884.8653.9456.6905,1.565-.139.4947-13.6665,48.4918-16.5569,62.0724,2.363,1.6923,9.3315,7.2199,10.332,14.1847.5058,3.521-.5738,6.8524-3.2079,9.9015-2.8274,3.2727-7.0994,4.9786-12.4202,4.9786ZM896.5849,428.033c8.5768,12.5838,24.274,22.6015,36.6497,23.3531,3.6248.2285,8.6151-.2958,11.8174-4.004,2.1314-2.4667,2.9763-5.0039,2.5829-7.756-1.003-7.0142-9.8095-12.787-9.8985-12.8445-.4626-.2995-.6967-.8517-.5886-1.3921,2.3025-11.5073,14.3595-54.519,16.4841-62.0706l-35.6745-17.891c-1.8677,10.3944-11.453,61.054-22.5261,71.3014l1.1537,11.3035Z"/>
    </g>
    <path d="M910.9103,351.1313s-.1784,36.7881,35.2238,44.1972c6.1859-23.0816,9.0912-29.5781,9.0912-29.5781l-44.3151-14.6191Z"/>
    <g>
      <path class="cls-4" d="M1008.1485,284.6194c1.4826,4.9667,1.2693,10.3.5722,15.4038-.7757,5.679-1.0128,11.416-1.8547,17.0934-3.492,23.5481-10.3908,53.2827-35.3197,62.6937-23.0622,8.7062-48.4197-4.8838-58.2162-26.5668-8.2071-18.165-8.0279-40.1777.3819-58.2525,13.5691-29.1635,48.3115-38.9659,77.0775-27.4988,7.1017,2.831,13.6543,7.887,16.5854,14.9481.2976.7171.5542,1.4441.7736,2.1791Z"/>
      <path d="M957.1492,383.7497c-18.3536,0-36.7077-11.5049-45.043-29.9529-8.4026-18.5963-8.2575-40.792.3879-59.3728,13.1144-28.1853,47.7247-40.5641,78.7924-28.1791,8.3612,3.332,14.5145,8.901,17.3283,15.6805.3088.7436.5855,1.5206.8214,2.3092v.0006c1.7194,5.7611,1.1747,11.8736.6151,15.9696-.3607,2.6458-.609,5.364-.8498,7.9925-.273,2.9874-.5559,6.0761-1.0067,9.1166-3.6637,24.7075-11.0861,54.2825-36.1741,63.7536-4.8192,1.8189-9.846,2.6823-14.8715,2.6823ZM966.5331,264.1344c-21.9925,0-42.3842,11.6092-51.6033,31.4235-8.3198,17.8811-8.46,39.2393-.3755,57.1322,10.0442,22.2334,35.3966,33.8365,56.5176,25.8637,23.7787-8.977,30.9096-37.6539,34.4646-61.6339.441-2.9658.7189-6.0168.9894-8.9671.2433-2.6582.4941-5.4066.8647-8.1111.525-3.8496,1.0413-9.5754-.5287-14.8381-.21-.7004-.4546-1.389-.7275-2.048-3.4191-8.2377-11.3937-12.4424-15.8424-14.2156-7.8319-3.122-15.8986-4.6055-23.7589-4.6055Z"/>
    </g>
    <path d="M973.4788,310.6319c-.2625,0-.5287-.0408-.7912-.1272-6.5343-2.1487-13.3404-3.0677-20.2422-2.7224-1.4026.0605-2.5829-1.0061-2.652-2.4013s1.0055-2.5829,2.4013-2.652c7.5157-.3712,14.9462.6256,22.0741,2.9695,1.3272.4367,2.0492,1.8664,1.6126,3.1937-.3502,1.0648-1.3396,1.7398-2.4025,1.7398Z"/>
    <path d="M1004.5959,315.1602c-.3644,0-.7343-.0791-1.0851-.2464-3.7841-1.801-7.9709-2.7058-12.1046-2.5952-1.4514.042-2.5569-1.0697-2.5921-2.4661-.0346-1.3964,1.0691-2.5569,2.4661-2.5921,4.9273-.1204,9.9071.9443,14.4046,3.0856,1.2612.6003,1.7972,2.1098,1.1969,3.3709-.4336.911-1.3402,1.4434-2.2858,1.4434Z"/>
    <circle cx="962.1481" cy="323.2853" r="3.2189"/>
    <circle cx="995.6018" cy="327.3797" r="3.2189"/>
    <path d="M968.6682,362.3383c-.0179,0-.0364,0-.055-.0012-4.138-.1729-8.0135-2.1462-10.634-5.4127-2.5866-3.2245-3.899-7.6615-3.6019-12.1725.0476-.7115.6534-1.2525,1.3754-1.205.7121.0469,1.2519.6627,1.205,1.3754-.2557,3.873.8523,7.6578,3.0386,10.3839,2.153,2.6848,5.3331,4.306,8.7256,4.448.7133.0296,1.2673.6318,1.2371,1.3458-.029.6948-.6016,1.2383-1.2908,1.2383Z"/>
    <path d="M975.3094,346.8832c-2.161,0-4.1812-1.0221-5.5295-1.7046-.717-.3625-1.0042-1.2383-.6411-1.9554s1.2395-1.0055,1.9554-.6411c1.8683.9456,3.8249,1.8152,5.435,1.1636,2.0443-.8282,2.9614-3.8014,3.4734-5.9655,1.2463-5.2633,1.9974-10.6569,2.2333-16.0301.0358-.8029.7269-1.4112,1.5175-1.3902.8029.0352,1.4254.7146,1.3902,1.5175-.244,5.556-1.0209,11.1324-2.3086,16.5736-.6608,2.7916-1.9202,6.6579-5.2126,7.9925-.7732.3131-1.5521.4397-2.313.4397Z"/>
    <path d="M981.9276,255.6044c-3.5104-.0742-7.9167.3825-8.0986,2.6636-52.9495-11.3096-51.2612,16.0963-62.9186,43.288,62.1187-1.0959,72.7959-25.4772,74.5292-35.7961,2.5617,7.3235,13.4375,36.7475,23.9391,40.1558.6846.2222,1.1102-11.0304,1.0465-12.222-.5913-11.0521-5.0299-23.6393-13.0799-31.5117-3.1473-3.0779-7.1933-5.3872-11.5317-6.2435-.6991-.138-2.1877-.2982-3.886-.3341Z"/>
    <path d="M1078.8421,584.1245c-.9202,0-1.8714-.1291-2.8114-.3891-1.9381-.5342-3.6303-1.5638-4.7667-2.9003-1.2365-1.4526-1.6997-3.1721-1.2735-4.7179.8548-3.1004,4.8507-4.6142,9.0912-3.4444h0c4.243,1.1704,6.895,4.5172,6.039,7.6189-.4262,1.5453-1.7058,2.7836-3.5117,3.3975-.8548.2903-1.7935.4354-2.7669.4354ZM1076.2592,574.814c-1.9158,0-3.4895.7418-3.8304,1.9764-.2742.9919.3594,1.9331.7621,2.4056.7992.94,2.0801,1.7058,3.5117,2.1011,1.4316.3947,2.9238.394,4.0923-.0031.5867-.2001,1.6132-.6831,1.8874-1.6756.462-1.6762-1.4946-3.7403-4.2726-4.5073h0c-.7337-.202-1.4637-.2971-2.1505-.2971Z"/>
    <g>
      <path class="cls-4" d="M1063.8238,540.2063s32.2187,13.2226,43.7032,6.6422c11.4845-6.5804,19.6978-18.5259,23.4543-16.721,3.7565,1.8049,5.7351,6.2098,1.747,12.5777s-13.2994,15.5451-13.2994,15.5451l-7.0361,35.3075s.5632,4.4072-20.5533-3.7591c-21.1165-8.1663-49.1525-23.7436-49.1525-23.7436l14.5032-28.8378,6.6337,2.9889Z"/>
      <path d="M1109.8215,596.0234c-2.7335,0-7.987-1.003-18.4382-5.0453-20.9556-8.1037-49.0297-23.6613-49.3101-23.8176-.5929-.3292-.8214-1.0679-.5163-1.6737l14.5028-28.8375c.3039-.604,1.0277-.8628,1.6503-.5849l6.6134,2.9794c.9215.3743,31.87,12.8445,42.5744,6.7073,5.1892-2.9732,9.7916-7.1544,13.4899-10.5142,5.0298-4.5703,8.3526-7.5898,11.1404-6.2496,2.1777,1.0462,3.7193,2.804,4.3406,4.9502.5534,1.9146.6448,5.1064-2.0678,9.439-3.6797,5.8753-11.595,13.8913-13.207,15.4996l-6.9358,34.8073c-.0247.4824-.2545,1.0753-.8486,1.5403-.357.2804-1.0203.7998-2.988.7998ZM1111.1382,593.7153v.0031-.0031ZM1111.1382,593.7135v.0006-.0006ZM1044.3646,565.5344c5.3152,2.9077,29.4428,15.935,47.9304,23.0845,15.003,5.8025,18.3085,4.9378,18.8631,4.6685l7.0309-35.2841c.0494-.2483.1717-.4762.352-.6541.0926-.0908,9.2531-9.1474,13.1156-15.3155,1.7553-2.8021,2.3704-5.3584,1.7812-7.3934-.5349-1.8516-1.9294-2.8565-3.0041-3.3728-1.2649-.5978-5.0199,2.8212-8.3452,5.842-3.7897,3.4426-8.5057,7.7263-13.9333,10.8366-11.8828,6.8098-43.4724-6.0205-44.8114-6.5695-.0124-.0056-.0259-.0111-.0395-.0173l-5.5289-2.4908-13.4108,26.666Z"/>
    </g>
    <path class="cls-9" d="M961.7791,649.3928c.3617-22.4142-1.8124-72.8511,1.3539-89.2069,48.7894,22.0876,121.3677,32.2437,121.3677,32.2437l14.6612-48.5301c-23.0139-4.3394-47.8881-9.7825-67.2342-23.7482-18.4111-13.2907-29.702-33.5437-43.284-51.1941-11.9183-15.4884-25.9489-28.8117-40.954-41.1491,0,0-8.6903-4.6311-8.6902-4.631,5.1047,5.5449,3.8376,19.0346-4.6376,20.5974-1.6316.3009-3.3145.1142-4.9447-.1948-11.9441-2.2639-30.3669-12.0505-31.4474-25.8395-.0804-1.0261.6195-10.4829,1.9394-10.2865l-15.2856-2.2742c-1.8239-.2668-3.6979-.3025-5.6203-.2613-58.8402,1.2619-110.3361,41.0512-145.2486,85.555-15.2591,19.4511-37.8094,46.9046-35.5028,73.1472,2.2896,26.0486,25.673,45.2786,51.0281,47.2486,15.9307,1.2378,31.8212-2.1344,47.6904-3.1881l-12.7126,26.322s86.1352,43.2086,177.0539,23.4767l.4675-8.0868ZM779.4488,544.5917l16.4508-19.4125c-.3343,4.665-.5705,9.2729-.727,13.7859l-15.7238,5.6266Z"/>
    <g>
      <path class="cls-4" d="M885.2342,516.281s8.947-24.1549,15.045-28.4725c6.0981-4.3176,14.3739-.4915-.9515,20.861"/>
      <path d="M885.2343,517.5463c-.1464,0-.2946-.0259-.4391-.0791-.6553-.2427-.9894-.9709-.7473-1.6256.3712-1.0018,9.1561-24.5735,15.5008-29.0654,3.1134-2.2049,6.4689-2.4136,8.3526-.52,1.9665,1.9794,3.6013,7.6189-7.546,23.1505-.4076.5663-1.1988.6973-1.7651.2903-.5676-.4076-.6973-1.1975-.2903-1.7651,8.5354-11.8921,9.5396-18.1485,7.8066-19.8926-.9487-.9524-3.0905-.6182-5.0965.801-4.7408,3.3567-12.1392,21.2631-14.5892,27.8796-.189.5101-.6726.8264-1.1864.8264Z"/>
    </g>
    <path d="M933.0757,445.4561c-2.4131,0-4.8091-.7646-7.0786-1.6318-16.0269-6.1284-25.6748-13.3926-28.6772-21.5918-1.7734-4.8438-1.1973-9.978,1.7134-15.2612l1.752.9648c-2.6191,4.7539-3.1533,9.3325-1.5874,13.6084,2.7944,7.6318,12.0513,14.4995,27.5132,20.4116,2.6313,1.0054,5.4233,1.8657,8.0225,1.3398,2.8911-.5825,4.3413-2.9897,5.0488-4.9062,1.6831-4.5586.9497-11.3794-1.5698-14.5957l1.5742-1.2334c2.9878,3.814,3.8271,11.2256,1.8721,16.5215-1.2681,3.4341-3.5259,5.5688-6.5298,6.1748-.6841.1377-1.3696.1992-2.0532.1992Z"/>
    <g>
      <path class="cls-1" d="M902.85,539.9192c4.0986,28.3208,14.1455,57.003,28.4534,81.4453-2.3961,7.063,1.4756,14.7934,8.6918,17.0134l102.2137,31.4446c7.4123,2.2803,15.1994-2.2217,16.9218-9.7832l8.5164-37.3881,78.0248-63.1329c9.6023,4.5574,20.1561,4.8144,27.0919,4.2726,3.3392-.2608,4.9256-4.2404,2.7203-6.7614l-33.0875-37.8235c-2.0981-2.3984-6.0417-1.5903-6.9693,1.4583-2.0443,6.7183-4.291,17.2701-1.8049,25.8644l-59.6253,48.2452,18.3997-80.7775c1.1305-4.9635-.6793-9.9395-4.3231-13.071-8.5152-30.3463-22.8034-61.6045-38.002-80.7629-17.077-21.5238-43.0812-31.7904-67.8647-26.7936-15.1285,3.0496-29.6936,11.6532-42.1292,24.8801-29.7576,31.6475-43.6746,77.1308-37.2278,121.6701ZM946.3265,424.4263c7.8388-8.337,20.7411-18.9926,37.707-22.4149,21.3002-4.2957,44.6204,4.9761,59.4124,23.6202,14.0362,17.6938,26.1917,42.8289,34.3901,70.9899l-74.736-22.7576c-6.6347-2.0203-13.7104,1.3828-16.274,7.8272l-51.4705,129.3872c-11.968-22.1028-20.3932-47.3276-24.0035-72.2752-6.0626-41.8811,7.012-84.6399,34.9744-114.3768Z"/>
      <path d="M1046.1186,671.6734c-1.4403,0-2.8842-.2118-4.2813-.6417l-102.2141-31.4451c-3.7952-1.1673-6.8808-3.7557-8.6873-7.2891-1.7238-3.3709-2.0752-7.1766-1.0079-10.7804-14.2082-24.4265-24.2629-53.3159-28.3298-81.4166h0c-6.501-44.9164,7.5392-90.7926,37.5582-122.7182,12.6172-13.4195,27.417-22.1519,42.8005-25.2535,25.2535-5.0904,51.7305,5.3498,69.1052,27.2478,14.6819,18.5061,29.2748,49.4559,38.1289,80.8472,3.9157,3.5488,5.6141,8.8967,4.4382,14.0537l-17.5871,77.215,56.1434-45.429c-2.1752-8.5755-.1211-18.692,2.0319-25.7674.5682-1.8646,2.0492-3.2233,3.9626-3.6346,1.9294-.4144,3.8675.2242,5.1694,1.7114l33.0867,37.8238c1.3452,1.5372,1.7009,3.668.9301,5.561-.7646,1.8745-2.4902,3.1368-4.5036,3.2943-7.0667.5478-17.4055.2761-27.0069-4.0552l-77.0717,62.3621-8.4205,36.9616c-.898,3.9453-3.4228,7.37-6.9259,9.3957-2.2382,1.2939-4.7717,1.9572-7.3187,1.9572ZM994.7043,393.3887c-4.0861,0-8.1827.4008-12.2472,1.2204-14.8665,2.9967-29.2019,11.4709-41.4578,24.5062-29.4959,31.3691-43.289,76.4615-36.8973,120.6232h0c4.0478,27.971,14.0957,56.7332,28.2928,80.9868l.2921.4984-.1859.5472c-1.0561,3.1134-.8115,6.4429.6874,9.3753,1.4928,2.9188,4.0423,5.0576,7.1785,6.0229l102.2141,31.4445c3.2462.9974,6.6504.6121,9.5903-1.0876,2.9386-1.699,4.9718-4.4579,5.7265-7.7677l8.6132-37.8151.3409-.2755,78.6429-63.6337.7189.3415c9.3012,4.4147,19.5202,4.7,26.4511,4.1541,1.0697-.0834,1.9517-.7288,2.358-1.7268.415-1.0166.231-2.1159-.4916-2.9404l-33.0867-37.8238c-.6855-.785-1.7058-1.1265-2.7335-.9036-1.0018.2155-1.7775.9246-2.0727,1.8973-2.1221,6.9741-4.1578,16.9973-1.801,25.1448l.2335.8066-63.1174,51.0715,19.2102-84.3398c.9944-4.3671-.504-8.9004-3.9144-11.831l-.289-.2495-.1038-.3681c-8.759-31.2116-23.2333-61.9878-37.7756-80.3179-13.9753-17.6143-34.0205-27.5603-54.3764-27.5603ZM935.5309,614.0589l-1.2877-2.3784c-12.162-22.4613-20.5109-47.5993-24.1431-72.6966-6.1174-42.2595,7.0809-85.4089,35.3051-115.4242l.9215.8665-.9215-.8665c7.9647-8.4705,21.0883-19.3004,38.3778-22.7886,21.7609-4.3887,45.5686,5.0619,60.6532,24.0745,14.0791,17.7471,26.372,43.1118,34.6134,71.4224l.6534,2.2444-76.9717-23.4384c-5.9569-1.8121-12.4282,1.2976-14.73,7.0846l-52.4704,131.9002ZM994.5301,402.2379c-3.4389,0-6.8685.3323-10.2468,1.0135-16.636,3.3561-29.3223,13.8388-37.0351,22.0413-27.7011,29.4588-40.6524,71.8251-34.6443,113.3292,3.4611,23.9152,11.256,47.8692,22.5842,69.4541l50.4626-126.8525c2.7842-7,10.6124-10.7674,17.8181-8.5694l72.4878,22.0728c-8.1401-27.094-19.9946-51.2828-33.5017-68.3091-12.1484-15.3131-30.1493-24.1801-47.9248-24.1801Z"/>
    </g>
    <g>
      <g>
        <path class="cls-4" d="M921.8184,540.9028c8.4048-4.7724,2.0945-12.874,2.0945-12.874,3.1558-7.4918-5.1341-11.0493-5.1341-11.0493,9.922-20.1686-27.4795-11.7555-40.7349,2.0411-13.2553,13.7966-16.738,17.1992-16.738,17.1992l-8.318,4.0593c.5365,1.9364.8877,3.9475.9805,6.0185.021.4692.0183.9344.0069,1.3983.7308,2.0305,1.2236,4.1708,1.4555,6.3805,1.4565,3.0322,2.3675,6.3804,2.5971,9.8912.5224,1.4295.9235,2.9131,1.1996,4.4407,1.9386-.0029,7.4173-.3127,22.9203-2.0088,20.1063-2.1998,31.1109-8.9517,38.7229-16.124,7.6121-7.1722.9476-9.3729.9476-9.3729Z"/>
        <path d="M927.2961,535.9197c.6911-3.4765-1.1024-6.7456-1.9615-8.0629,2.0122-5.7203-1.8022-9.6798-4.8964-11.4567,2.6366-6.1421.6738-9.2506-1.5243-10.7909-8.4082-5.8932-32.0824,2.4402-41.782,12.535-11.663,12.1398-15.7886,16.2586-16.5674,17.03l-7.9264,3.8681c.267.8108.496,1.6381.6863,2.4799l8.5359-4.1653c.1217-.0593.2328-.1377.3292-.2322.0352-.034,3.6495-3.5741,16.7669-17.2277,9.4661-9.8528,31.7786-16.9337,38.5056-12.2164,2.2117,1.5496,2.2728,4.4907.1816,8.7404-.1526.31-.1698.6701-.0506.9944.1186.3249.3669.5873.6843.7251.2909.1266,7.0933,3.1708,4.4703,9.3976-.1773.42-.1124.9048.1655,1.2661.0259.0334,2.5581,3.3629,1.8998,6.6344-.3483,1.7305-1.5663,3.1992-3.6186,4.3647-.4323.2452-.6763.7226-.6306,1.2173.0451.4947.3804.9184.8498,1.0808.0154.0056,1.5335.5441,1.7979,1.7775.2816,1.3167-.8572,3.2616-3.2079,5.4764-5.9958,5.6487-16.4575,13.4312-37.993,15.7868-16.8044,1.8389-21.6436,2.0377-23.0144,2.0057.1878.8163.3364,1.6466.4486,2.4873.0638.0007.1195.0026.1884.0026,2.7422,0,8.7997-.4651,22.6528-1.9807,22.2908-2.4383,33.1917-10.5618,39.4518-16.46,3.122-2.9417,4.4474-5.5925,3.9404-7.8789-.244-1.0993-.8659-1.9035-1.5169-2.4711,1.7028-1.3643,2.7545-3.0152,3.135-4.9273Z"/>
      </g>
      <path d="M907.4146,547.2232c-.5139,0-.9808-.3477-1.1105-.869-.1532-.6133.2205-1.2346.8344-1.3878,4.7717-1.1895,9.3846-2.9775,13.7104-5.3145.5565-.3032,1.2513-.0926,1.5514.4632.3008.5565.0933,1.2513-.4632,1.5514-4.4944,2.4284-9.287,4.2862-14.2452,5.5221-.0926.0235-.1859.0346-.2773.0346Z"/>
      <path d="M910.0215,533.8155c-.4052,0-.798-.2155-1.0061-.596-.3032-.5552-.0994-1.2507.4552-1.5545,4.5425-2.4847,9.6767-3.9607,14.8468-4.2683.6201-.0395,1.1735.4441,1.2111,1.0753s-.4441,1.1735-1.0753,1.2111c-4.8347.2878-9.6354,1.6676-13.8833,3.9916-.1748.0951-.3632.1408-.5484.1408Z"/>
      <path d="M903.5761,524.9793c-.3916,0-.7726-.2007-.9863-.5614-.3224-.5441-.1427-1.247.4014-1.5687,4.9637-2.9398,10.3011-5.2034,15.8634-6.7295.6151-.1649,1.2402.1921,1.4075.801.1674.6102-.1915,1.2402-.801,1.4075-5.3658,1.4718-10.5142,3.6563-15.3026,6.4911-.1834.1087-.3842.16-.5824.16Z"/>
    </g>
    <g>
      <g>
        <path class="cls-4" d="M1143.5092,560.1897s-12.0245-6.3618-22.1879-4.6659-7.3895,7.3124-6.5387,8.4741.994.8399.994.8399c-2.9141-.3878-5.5087.4896-5.9934,3.6034-.4009,2.5752-.2798,4.5358,2.0668,6.0041,0,0-7.4768,3.9305-3.1034,9.4855,1.2556.8568,1.953,1.4251,1.953,1.4251,0,0-7.815,3.6947-3.6697,7.6262s27.6332,7.4506,30.8575,5.5602,2.349-5.7032.9736-7.0132c0,0,8.4161-4.9798,3.846-11.7065,0,0,4.7957-7.7732.4178-9.7816,0,0,5.265-6.5873.3845-9.8514Z"/>
        <path d="M1134.0492,600.2694c-8.2599.0006-24.3228-2.9868-27.8901-6.3694-1.57-1.4897-1.7133-2.9707-1.5564-3.9502.3323-2.0789,2.2802-3.7353,3.7872-4.7284-.1136-.0784-.2322-.1606-.3557-.2452-.1062-.0729-.2013-.1612-.2816-.2625-1.4007-1.78-1.9109-3.6241-1.5156-5.4801.4756-2.2351,2.1999-3.92,3.4969-4.9082-1.5774-1.7565-1.5341-3.9379-1.2006-6.0785.4027-2.5921,2.0554-4.2208,4.5777-4.6488-.4854-1.0771-.9388-2.7737-.2088-4.5666.982-2.4099,3.7452-4.0102,8.2118-4.755,10.4636-1.7491,22.4811,4.5265,22.9875,4.7951.0383.0204.0753.0426.1112.0667,1.4526.9715,2.316,2.2771,2.5631,3.8805.3977,2.5674-.9672,5.2423-1.8887,6.7023.52.4972.8992,1.1179,1.1179,1.8411.861,2.8441-.9524,6.6498-1.822,8.234,1.0709,1.8602,1.3958,3.7724.9672,5.695-.6732,3.009-3.0609,5.233-4.5098,6.341.5645,1.0598.8288,2.3797.6843,3.6241-.2026,1.7553-1.1969,3.2388-2.7978,4.1775-.7473.4385-2.3556.6355-4.4777.6355ZM1109.6276,583.001c1.1796.8134,1.8417,1.3507,1.8714,1.3742.336.2736.5077.7016.4558,1.1321s-.3212.8054-.7127.9913c-1.4761.7022-3.9058,2.3692-4.1417,3.8527-.0321.205-.1322.8295.8004,1.7133,4.0416,3.8329,26.892,6.8302,29.3464,5.3868.9252-.5423,1.4526-1.3112,1.565-2.2858.126-1.0913-.3199-2.2401-.8239-2.7206-.2866-.2724-.4274-.6639-.3842-1.0574.0445-.3928.2705-.743.6102-.9462.0371-.0222,3.7514-2.271,4.469-5.5122.3249-1.4668-.0099-2.9046-1.0228-4.3955-.2792-.4119-.2915-.9499-.0309-1.3742.7016-1.1407,2.5656-4.8501,1.9529-6.866-.1569-.5157-.4694-.8659-.9857-1.1024-.3533-.1624-.6114-.4786-.7016-.8566-.0914-.378-.0025-.7776.2396-1.0814.7103-.8943,2.4791-3.6878,2.1406-5.8525-.1359-.8653-.5978-1.5601-1.4143-2.1221-.8992-.462-12.0694-6.0538-21.3311-4.5067-3.492.5824-5.666,1.6941-6.2848,3.2147-.6473,1.5885.546,3.248.5571,3.2647.1223.1655.2149.281.2841.3601.3347.0852.6238.3039.7942.6096.1939.3477.2137.7671.0506,1.1315-.1828.4119-.6386.7356-1.087.7831-.2458.0296-.4756-.0105-.688-.0939-2.4359-.21-3.8218.6608-4.1232,2.5946-.415,2.6582-.0667,3.7643,1.4872,4.7371.3842.2403.6102.667.5929,1.1197-.0161.4521-.2742.8616-.6757,1.0722-.0284.0154-3.2066,1.7299-3.7279,4.2035-.2223,1.053.0778,2.1122.9178,3.2326Z"/>
      </g>
      <path d="M1131.7232,570.0991c-.0902,0-.1803-.0099-.2717-.0303-3.0448-.6812-6.1181-1.368-9.1505-1.9294l-.2384-.0439c-2.6261-.4854-5.603-1.0357-7.814-2.9874-.5237-.462-.5731-1.2618-.1112-1.7849.4644-.5244,1.2624-.5719,1.7861-.1112,1.6848,1.4878,4.1825,1.9492,6.5986,2.3957l.2396.0439c3.0782.5701,6.1749,1.2624,9.1691,1.9319.6806.1526,1.1463.8369.9944,1.5187-.1322.5898-.6287.9968-1.2019.9968Z"/>
      <path d="M1129.984,579.9908c-6.1625,0-12.3535-1.3482-17.9552-3.9144-.5583-.2563-1.864-.856-2.1443-2.2283-.1408-.6843.3014-1.3526.9857-1.4921.6732-.1458,1.3415.294,1.4897.9703.0296.0476.163.1933.7238.4509,5.4794,2.51,11.5543,3.7773,17.5871,3.6779.6448-.0204,1.2735.5447,1.2871,1.2426.0124.6985-.5447,1.2748-1.2426,1.2871-.2433.0043-.4879.0062-.7313.0062Z"/>
      <path d="M1123.782,588.9634c-1.0932,0-2.1752-.0587-3.24-.1167-1.6824-.0914-3.4228-.1853-5.1521-.5948-2.1085-.4996-4.0256-1.4267-5.8809-2.3228-.6287-.3039-.8918-1.0604-.588-1.6892.3039-.6281,1.0598-.8937,1.6898-.5886,1.7318.8375,3.5229,1.7028,5.3621,2.1388,1.5094.3576,3.135.4453,4.7062.5305,2.0035.1106,4.0738.2223,6.0254-.0951.7028-.1124,1.339.3576,1.4514,1.0462.1112.6899-.357,1.3396-1.0462,1.4514-1.1154.1803-2.2271.2403-3.3277.2403Z"/>
    </g>
    <path d="M913.0361,262.799c-7.5085-1.2317-14.6354-5.0849-19.7788-10.6935-3.6367-3.9657-6.3729-9.3181-5.1754-14.3631,1.6461-6.9349,11.6374-10.0811,17.4828-5.5052-2.4735-3.1697-3.7547-7.3129-2.919-11.1075.9053-4.1103,4.2381-6.8426,8.2369-7.7739,6.4437-1.5008,14.152.3196,19.1731,4.5993,1.077.918,2.1454,3.0911,3.5662,2.0394.8747-.6475.9712-2.5517,1.4747-3.4774,1.0104-1.8572,2.7365-3.1669,4.6595-3.9771,3.8208-1.61,8.7271-1.5116,12.4202.2808,5.4174,2.6291,8.9028,8.7597,8.253,14.5162-.4911,4.3505-3.0465,8.1314-5.8155,11.4968"/>
    <path class="cls-9" d="M956.347,237.8687c-5.0181.5558-9.9295,1.1117-14.7615,1.9642l-3.602.6981c-1.1859.2859-2.3819.5232-3.5536.8457-2.3482.6151-4.696,1.234-6.9484,2.1025-4.5413,1.6154-8.9413,3.6194-12.9456,6.3127-4.0041,2.6618-7.6876,5.9732-11.3105,9.4787,2.3681-4.4609,5.5625-8.5123,9.5376-11.8504,3.9518-3.3448,8.6024-5.8187,13.4566-7.5172,4.8713-1.6657,9.9285-2.7148,15.0124-2.9985,5.0757-.3211,10.1687-.0492,15.1149.9643Z"/>
    <path class="cls-5" d="M932.7104,224.2334c-.4614-2.6206-.4624-4.8872-.002-6.9282.9551-4.2344,2.3569-7.0337,6.3887-7.9053,2.207-.4775,4.6812-.4692,7.7866.0244,1.5845.2515,3.8335.8228,5.5493,2.1128,1.7939,1.3491,2.5596,3.2056,2.2148,5.3701l-.7402-.1182c.3022-1.8989-.3457-3.4644-1.9253-4.6523-1.2427-.9346-3.0957-1.6348-5.2168-1.9722-3.0098-.4785-5.3965-.4883-7.5103-.0312-3.6582.7905-4.9023,3.2891-5.8154,7.3369-.438,1.9424-.4351,4.1118.0088,6.6333l-.7383.1299Z"/>
    <path class="cls-5" d="M949.647,295.5059l-.1484-.7354,13.0815-2.6406c2.353-.4746,4.7866-.9658,6.8906-2.1646,2.5068-1.4287,4.4336-3.8359,6.1338-5.96,5.3306-6.6597,10.0742-13.2646,9.585-20.8389l.748-.0488c.5068,7.8428-4.3213,14.5771-9.7471,21.3564-1.7427,2.1763-3.7173,4.6431-6.3486,6.1426-2.209,1.2588-4.7021,1.7617-7.1133,2.2485l-13.0815,2.6406Z"/>
    <g>
      <circle class="cls-3" cx="958.2504" cy="451.4318" r="2.7321"/>
      <circle class="cls-3" cx="1088.8016" cy="553.7441" r="2.7321"/>
      <circle class="cls-3" cx="892.6803" cy="580.1465" r="2.7321"/>
      <circle class="cls-3" cx="896.7411" cy="615.2087" r="2.7321"/>
      <circle class="cls-3" cx="938.8502" cy="572.8312" r="2.7321"/>
      <circle class="cls-3" cx="949.0389" cy="523.9136" r="2.7321"/>
      <circle class="cls-3" cx="933.0679" cy="476.1731" r="2.7321"/>
      <circle class="cls-3" cx="871.9212" cy="439.7626" r="2.7321"/>
      <circle class="cls-3" cx="881.2591" cy="490.8974" r="2.7321"/>
      <circle class="cls-3" cx="827.7442" cy="548.3731" r="2.7321"/>
      <circle class="cls-3" cx="797.1644" cy="581.5924" r="2.7321"/>
      <circle class="cls-3" cx="788.9232" cy="507.8467" r="2.7321"/>
      <circle class="cls-3" cx="733.4835" cy="588.9634" r="2.7321"/>
      <circle class="cls-3" cx="730.7514" cy="521.9744" r="2.7321"/>
      <circle class="cls-3" cx="830.4763" cy="510.8611" r="2.7321"/>
      <circle class="cls-3" cx="827.7442" cy="434.2984" r="2.7321"/>
      <circle class="cls-3" cx="850.9426" cy="570.0991" r="2.7321"/>
      <circle class="cls-3" cx="847.3243" cy="612.4766" r="2.7321"/>
    </g>
    <path d="M795.2983,608.9375c-.1455,0-.293-.0317-.4326-.0986-.4976-.2388-.7075-.8364-.4683-1.3345l.1489-.3081c.1465-.3003.4336-.5073.7646-.5522,32.0376-4.3267,62.4185-11.6621,68.0742-13.061l-14.0884-64.8662-69.6128,16.8472c-.4233.0991-.8599-.0791-1.0869-.4478-.2271-.3682-.1909-.8413.0889-1.1714l45.5635-53.6943c.3574-.4204.9873-.4731,1.4097-.1157.4214.3574.4727.9888.1157,1.4097l-43.5771,51.353,67.6235-16.3657c.2617-.062.5381-.0181.7661.125.2285.1426.3892.3716.4463.6348l14.5117,66.8145c.1143.5264-.2085,1.0488-.7305,1.1816-.332.0845-33.4604,8.4692-68.7314,13.27-.1914.2427-.4834.3799-.7852.3799Z"/>
  </g>
  <g id="cactus">
    <path class="cls-1" d="M1337.154,809.7301c.1594-.689.3447-1.4234.8704-1.8965.4363-.3927,1.041-.5392,1.6254-.5946.5204-.0493,1.0939-.0205,1.4915.3189.4648.3968.5375,1.076.5771,1.6858.0811,1.2495.0733,2.7111-.9116,3.4843,1.7127-.2629,3.4737-.5245,5.164-.1434.5866.1323,1.1705.3496,1.6194.7497.658.5864.9435,1.4909,1.0321,2.3678.0714.7062-.0173,1.5249-.5899,1.9443-.3022.2214-.6874.2891-1.0586.3394-1.708.2318-3.4479.2277-5.1548-.012-.353-.0496-.7721-.1659-.87-.5087.6419,1.2853,1.145,2.6397,1.4979,4.0324.0743.2932.1424.5953.1076.8958-.0986.8502-1.0455,1.4173-1.8963,1.3242s-1.5721-.6893-2.0751-1.3817-.8365-1.4911-1.266-2.2314c-.823-1.4186-2.9433-3.8077-1.8307-5.5749.3423-.5437.8975-.732,1.0834-1.4022.2991-1.0779.3286-2.2923.5843-3.3972Z"/>
    <path class="cls-1" d="M1323.0401,738.3091c-.0081-.3273.0218-.6766.2189-.938.2513-.3333.7142-.4369,1.1301-.4006,1.1343.099,2.0969,1.1689,2.0759,2.3073.2361-1.551,1.4298-2.8937,2.9172-3.3925s3.2039-.1721,4.4599.7679c.66.494,1.2274,1.2174,1.233,2.0417.0046.6828-.3832,1.3208-.8935,1.7745-.5103.4537-1.1363.7525-1.7532,1.0453,1.3869-.3614,2.9465.0324,3.9957,1.0087.4206.3914.768.8838.8894,1.4454s-.0127,1.1961-.4277,1.5934c-.4447.4257-1.1085.5141-1.7202.5585-1.0166.0739-2.0386.0769-3.0539-.0131-.3651-.0324-.7309-.0888-1.0608-.245-.5204-.2464-.8958-.7119-1.3189-1.1025-.6763-.6242-1.4942-1.0645-2.352-1.3852-.8144-.3045-1.7832-.3548-2.5555-.7387-1.2568-.6246-1.7538-3.0907-1.7845-4.3272Z"/>
    <path class="cls-1" d="M1272.5352,789.9078c2.5373.5607,5.2299.4008,7.6829-.457.9138-.3195,1.8843-.8295,2.1856-1.7495.2858-.8727-.1659-1.8649-.8961-2.4216s-1.6788-.7462-2.5965-.7784-1.8361.0766-2.7537.0417c.8489-.5214,1.4491-1.4298,1.5957-2.4152s-.1632-2.0292-.8236-2.775c-.1326-.1498-.2826-.2908-.4664-.3696-.1867-.0801-.3956-.0907-.5985-.0829-1.2027.0464-2.3207.7076-3.137,1.592-.8163.8844-1.3666,1.9792-1.841,3.0853-.1761-1.1785-.6687-2.3328-1.52-3.1665s-2.0835-1.3109-3.2589-1.1151c-.3178.053-.6387.1592-.8735.3798-.2974.2794-.4144.6987-.4824,1.1011-.5249,3.1023,1.3772,6.4439,4.3127,7.5765l3.471,1.5544Z"/>
    <path class="cls-2" d="M1293.9122,880.1085c-.297-17.2926-1.0253-35.8912-11.5056-49.6493-4.1069-5.3914-9.4738-9.6691-14.1449-14.5797-5.1192-5.3817-11.1836-13.7669-9.2185-21.7082.3488-1.4096,1.0161-2.763,2.0543-3.7783,1.9383-1.8954,4.9119-2.3673,7.5944-1.9749,8.3581,1.2226,15.3238,7.0146,20.355,13.4803.6804.8744,1.4976,1.8648,2.6054,1.8583.7667-.0045,1.4566-.5227,1.8736-1.1661,1.7482-2.6976,1.3387-6.478,1.2357-9.5041-.5538-16.2722,3.8433-35.6986,16.8753-46.4465,2.3551-1.9424,5.1174-3.3943,8.1148-3.9731,8.6996-1.6799,13.3338,4.0477,13.9103,11.7209.6694,8.9086-1.4403,17.8287-5.0021,25.956-1.7644,4.0261-3.8975,7.889-6.3095,11.5625-2.1025,3.2021-5.6728,6.5948-6.6014,10.3934-.2988,1.2225-.221,2.5422.3636,3.6566,1.0588,2.0181,2.9452,2.0538,4.6971,2.0903,4.4673.0931,9.0891.4547,12.8183,3.2376,1.8188,1.3572,3.2026,3.2896,3.6336,5.5176,1.3364,6.9088-6.3126,11.3225-12.9035,11.8056-5.9531.4363-12.4668-.7619-15.7365,8.9411-.9272,2.7516-1.3129,5.6569-1.3099,8.5605l.0427,40.4699"/>
    <g>
      <path class="cls-6" d="M1341.0123,913.535h-79.2868l-7.1184-31.0711c-1.2083-5.2743,2.7989-10.3035,8.2099-10.3035h77.1039c5.4109,0,9.4182,5.0292,8.2099,10.3035l-7.1184,31.0711Z"/>
      <path d="M1341.0117,914.7995h-79.2865c-.5892,0-1.1018-.4076-1.2328-.982l-7.1186-31.0708c-.6621-2.8917.0173-5.8809,1.8664-8.2006s4.6099-3.6501,7.5769-3.6501h77.1039c2.967,0,5.729,1.3303,7.5769,3.6513,1.8479,2.3197,2.5285,5.3078,1.8652,8.1994l-7.1186,31.0708c-.1309.5744-.6436.982-1.2328.982ZM1262.7332,912.2698h77.2706l6.8938-30.0888c.4891-2.1357-.0124-4.343-1.3785-6.0575-1.3649-1.7145-3.4055-2.6977-5.598-2.6977h-77.1039c-2.1925,0-4.2331.9832-5.598,2.6977-1.3662,1.7133-1.8689,3.9218-1.3797,6.0575l6.8938,30.0888Z"/>
    </g>
    <path d="M1266.1029,799.4989c-.3619,0-.7152-.1556-.9598-.441l-2.2642-2.6384c-.4546-.5299-.394-1.3291.1359-1.7837.5311-.4546,1.3303-.3928,1.7837.1359l.0692.0803v-.0741c.0062-.6942.5707-1.2538,1.2649-1.2538h.0111c.6979.0062,1.2599.5768,1.2538,1.276l-.0296,3.445c-.0049.5274-.336.9956-.8313,1.1772-.1408.0519-.2878.0766-.4336.0766Z"/>
    <path d="M1282.5807,819.1167c-.1939,0-.3879-.0445-.567-.1346-.4212-.2112-.6905-.6386-.6979-1.1105-.0222-1.4254-.1223-2.8632-.294-4.2751-.0852-.693.4076-1.3242,1.1018-1.4082.6979-.1025,1.3242.4076,1.4082,1.1018.0877.7164.1581,1.439.21,2.1653l1.67-1.2056c.5682-.4064,1.3575-.2779,1.7664.2866.4076.567.2804,1.3575-.2866,1.7664l-3.571,2.5742c-.2186.1593-.4793.2396-.7399.2396Z"/>
    <path d="M1331.645,824.2873c-.231,0-.462-.063-.667-.1902-2.6397-1.6379-5.0829-3.5957-7.2619-5.8179-.4891-.499-.4817-1.2995.0173-1.7886.4966-.4916,1.2995-.4817,1.7886.0173,1.3921,1.4193,2.8978,2.7224,4.4999,3.8947.0568-.8819.2705-1.754.6349-2.5656.2866-.6349,1.0339-.919,1.6737-.6337.6361.2878.9202,1.0364.6337,1.6737-.5163,1.1438-.5657,2.531-.1322,3.7081.1865.5077.0309,1.0759-.3879,1.418-.231.1878-.5151.2841-.7992.2841Z"/>
    <path d="M1318.6739,790.4397c-.3113,0-.6164-.1149-.8523-.331-1.4131-1.2883-2.463-3.0176-2.9571-4.8668-.1803-.6744.2199-1.3674.8955-1.5477.6683-.1816,1.3674.2199,1.5477.8955.1705.6374.4299,1.2562.7621,1.8318l.6757-2.6545c.1729-.6769.861-1.0907,1.5379-.9128.6769.1717,1.0858.861.9128,1.5379l-1.297,5.0953c-.1087.4299-.4373.772-.8622.8992-.1198.0358-.2421.0531-.3632.0531Z"/>
    <path d="M1314.3186,755.9412c-.415,0-.8103-.2038-1.0499-.5583-.9338-1.3884-1.7627-2.8558-2.4643-4.364-.2952-.6324-.021-1.3859.6127-1.6799.6361-.2952,1.3872-.0198,1.6799.6127.1754.3767.3594.751.5521,1.1216.1519-.6794.3236-1.3526.5163-2.0196.1952-.6707.8943-1.0549,1.5663-.8647.6707.1939,1.0586.8955.8647,1.5663-.478,1.654-.8214,3.3598-1.0215,5.0681-.0618.5262-.4434.9573-.9585,1.0821-.0988.0247-.1989.0358-.2977.0358Z"/>
    <path d="M1302.7779,764.1974c-.2582,0-.5151-.0791-.7337-.2347-1.5934-1.1339-2.9472-2.5371-4.0244-4.1726-.3842-.583-.2236-1.3674.3607-1.7515.583-.3829,1.3674-.2223,1.7515.3607.3545.5361.751,1.0512,1.1846,1.5354-.0729-1.4983-.1112-3.0028-.1161-4.4987-.0025-.6979.562-1.2661,1.2612-1.2686h.0037c.6967,0,1.2624.5633,1.2649,1.2612.0074,2.4655.1112,4.9569.3088,7.4027.0395.4891-.2088.9585-.6361,1.2006-.1952.1112-.4101.1655-.625.1655Z"/>
    <path d="M1336.6501,776.9177c-.0173,0-.0334,0-.0506-.0012-1.6404-.0642-3.0918-.6942-4.495-1.3056-1.4143-.6151-2.7607-1.2019-4.0491-1.0561-.6077.063-1.1611-.3002-1.3427-.8745s.0655-1.1969.5917-1.4884c2.1938-1.2167,4.5493-2.1196,7.0012-2.6829.6794-.1593,1.3587.2693,1.5156.9499s-.2693,1.3587-.9499,1.5156c-.9734.2236-1.9307.5064-2.8657.8461.373.1519.7424.3113,1.108.4706,1.2439.541,2.4186,1.0524,3.5846,1.0981.6979.0272,1.2414.6151,1.2142,1.313-.0259.6806-.5867,1.2155-1.2624,1.2155Z"/>
    <path d="M1303.4535,793.9366c-.0655,0-.1309-.0049-.1964-.0148-.4447-.0704-.819-.3718-.982-.7918-.7103-1.8244-1.3958-3.66-2.0579-5.5029-.2359-.6571.1062-1.3822.7634-1.6181.6547-.2372,1.3822.105,1.6181.7634.4039,1.1253.8165,2.2481,1.2389,3.366,1.0166-1.3748,1.8998-2.8731,2.1283-4.5061.0963-.6917.73-1.1796,1.4279-1.0771.6917.0963,1.1735.735,1.0771,1.4279-.4249,3.0436-2.4272,5.5066-4.0355,7.4867-.2433.2977-.604.4669-.982.4669Z"/>
    <path d="M1301.4908,817.4911c-.1087,0-.2174-.0136-.3236-.042-.3903-.1038-.7078-.3866-.8548-.7634-.7621-1.9541-1.2328-4.0046-1.397-6.0946-.0543-.6954.4657-1.3044,1.1623-1.36.6855-.0494,1.3056.4657,1.36,1.1623.0988,1.2562.3224,2.4964.6683,3.7057l5.2299-4.2381c.5435-.441,1.3402-.3582,1.7787.1853.441.5423.357,1.339-.1853,1.7787l-6.6418,5.3843c-.2285.184-.5101.2816-.7967.2816Z"/>
    <path d="M1313.8146,846.7955c-1.8257,0-3.6513-.2162-5.43-.6411l-.1754-.042c-.7177-.1742-1.4588-.352-1.922-.1544-.5274.2236-1.1364.0704-1.4909-.3767-.3545-.4484-.3644-1.0783-.0247-1.5379,1.717-2.3197,3.5488-4.5913,5.4461-6.7517.4595-.5237,1.2587-.5756,1.7849-.1149.525.4607.5768,1.2599.1149,1.7849-1.2982,1.4798-2.568,3.0139-3.7884,4.5802.163.0358.3212.0741.4743.1112l.1692.0408c1.6811.4014,3.387.588,5.1361.5694h.0173c.6905,0,1.255.5546,1.2649,1.2476.0099.6979-.5484,1.2723-1.2463,1.2822-.1099.0012-.2199.0025-.3298.0025Z"/>
    <path d="M1290.5689,841.363c-.1445,0-.2903-.0247-.4323-.0766-2.7644-1.0042-5.3633-2.4074-7.7238-4.1676-.5608-.4175-.6757-1.2105-.2582-1.7701.4175-.5608,1.2093-.6757,1.7701-.2582,1.1352.8461,2.3296,1.6021,3.5747,2.2629-.8647-1.7577-1.5403-3.6031-2.0171-5.5202-.168-.6769.2446-1.3637.9227-1.5329.6757-.163,1.3637.2446,1.5329.9227.7275,2.925,1.964,5.6697,3.6736,8.1586.3113.4533.294,1.0561-.042,1.4909-.2446.3162-.6176.4904-1.0005.4904Z"/>
    <path d="M1300.4964,836.7025c-.3137,0-.6213-.1173-.8572-.3347l-4.6531-4.2875c-.5139-.4731-.546-1.2735-.0729-1.7874.4743-.5126,1.2748-.5435,1.7874-.0729l3.2449,2.9905c.6645-1.9578,1.2377-3.9515,1.7083-5.9488.1618-.6794.8412-1.0981,1.5218-.9412.6806.1606,1.1006.8424.9412,1.5218-.6398,2.7101-1.4588,5.414-2.4346,8.0364-.147.3953-.4817.6905-.8918.7893-.0976.0235-.1964.0346-.294.0346Z"/>
  </g>
  <g id="table">
    <g>
      <rect class="cls-7" x="990.4704" y="930.3872" width="318.3588" height="95.2784" transform="translate(2299.2997 1956.0528) rotate(-180)"/>
      <path d="M1310.0944,1026.9303h-320.8887v-97.8074h320.8887v97.8074ZM991.7354,1024.4006h315.8292v-92.748h-315.8292v92.748Z"/>
    </g>
    <g>
      <rect class="cls-7" x="673.4294" y="930.3872" width="318.3588" height="95.2784" transform="translate(1665.2176 1956.0528) rotate(-180)"/>
      <path d="M993.0528,1026.9303h-320.8881v-97.8074h320.8881v97.8074ZM674.6944,1024.4006h315.8286v-92.748h-315.8286v92.748Z"/>
    </g>
    <circle cx="1149.6498" cy="989.4102" r="10.2917"/>
    <circle cx="832.6088" cy="989.4102" r="10.2917"/>
    <g>
      <rect class="cls-7" x="1307.3959" y="929.456" width="40.071" height="359.8561" transform="translate(2654.8628 2218.7682) rotate(-180)"/>
      <path d="M1348.7322,1290.5775h-42.6016v-362.386h42.6016v362.386ZM1308.6603,1288.0478h37.5421v-357.3266h-37.5421v357.3266Z"/>
    </g>
    <g>
      <rect class="cls-7" x="658.2723" y="929.456" width="40.071" height="359.8561" transform="translate(1356.6156 2218.7682) rotate(-180)"/>
      <path d="M699.6082,1290.5775h-42.601v-362.386h42.601v362.386ZM659.537,1288.0478h37.5415v-357.3266h-37.5415v357.3266Z"/>
    </g>
    <g>
      <rect class="cls-7" x="624.2277" y="908.0654" width="771.8227" height="37.9092" transform="translate(2020.2782 1854.0399) rotate(-180)"/>
      <path d="M1397.3147,947.2399h-774.3521v-40.44h774.3521v40.44ZM625.4924,944.7101h769.2926v-35.3805h-769.2926v35.3805Z"/>
    </g>
  </g>
  <g id="cat">
    <g>
      <path d="M845.3426,886.3985s-43.2664-5.1292-45.9518,8.3148c-2.6854,13.444,4.1409,14.7239,14.807,14.7239,10.666,0,37.5445,0,37.5445,0l-6.3996-23.0386Z"/>
      <g>
        <path class="cls-3" d="M824.1527,909.4371s11.2349-7.8218,7.8218-12.657-5.5442-11.1656-15.2158-10.4181c-9.6716.7475-18.2715,2.6415-17.9535,11.5073.3179,8.8658-.1087,12.8477,25.3476,11.5678Z"/>
        <path d="M815.9446,910.9367c-8.6188,0-13.2496-1.0141-15.7071-3.2721-2.4377-2.2395-2.5483-5.4572-2.6767-9.1839l-.0198-.5657c-.3564-9.9361,8.9788-12.0311,19.12-12.8142,8.9165-.688,12.0644,4.2751,14.84,8.6552.4941.7794.9851,1.5551,1.507,2.2938.7695,1.0907,1.0351,2.3519.7893,3.7501-.869,4.9434-8.1,10.1029-8.922,10.6748-.1945.1359-.4224.2137-.659.226-3.0998.1556-5.8445.2359-8.2717.2359ZM824.1527,909.4371h.0123-.0123ZM818.3058,887.565c-.4607,0-.9431.0185-1.4495.0581-10.2672.793-17.051,2.8311-16.7867,10.2005l.0198.5694c.1173,3.4179.2026,5.8858,1.8596,7.4089,2.4976,2.295,9.0202,3.0139,21.772,2.3902,2.174-1.5737,7.0297-5.6672,7.5849-8.8318.1285-.7288.0124-1.3167-.3644-1.8516-.546-.7732-1.0604-1.5836-1.5768-2.3976-2.5538-4.0293-4.7834-7.546-11.059-7.546Z"/>
      </g>
    </g>
    <g>
      <path d="M637.9948,891.0915s-12.3726,17.4923-15.3591,30.9315c-2.9865,13.4392,11.5193,13.4392,15.3591,8.3195s15.7857-26.8784,15.7857-26.8784l-15.7857-12.3726Z"/>
      <g>
        <path class="cls-3" d="M651.4706,907.632s-7.2895-1.7147-11.6626,1.1651c-4.3731,2.8798-5.013,2.7732-6.9329,0s-4.0916-2.4179-4.0916-2.4179c0,0-6.6965,10.2222-6.4221,20.6658.2743,10.4437,12.8145,7.5761,15.6334,3.2974,3.5198-5.013,13.4758-22.7105,13.4758-22.7105Z"/>
        <path d="M629.3914,935.483c-.9375,0-1.8652-.1136-2.7478-.3656-2.0079-.5731-5.3979-2.3803-5.5468-8.0388-.2816-10.7168,6.3466-20.9617,6.6288-21.3928.1945-.2965.504-.4978.8542-.5559.1211-.0185,2.9874-.4434,5.3355,2.9472q1.4668,2.1184,5.1972-.336c4.7729-3.1461,12.3281-1.4156,12.6474-1.3402.3872.0914.709.3594.8684.7226.16.3644.1396.7831-.0556,1.129-.4076.7251-10.0275,17.8094-13.543,22.8158-1.5626,2.3741-5.6826,4.4147-9.6384,4.4147ZM629.4673,907.6806c-1.3767,2.3099-6.0649,10.8267-5.842,19.3312.0815,3.0844,1.3303,4.9928,3.7125,5.6721,3.3876.9672,8.1883-.8931,9.6008-3.0374,2.8497-4.0602,10.0294-16.6347,12.5437-21.068-2.271-.2927-6.3138-.4805-8.9782,1.2748-4.5604,3.0053-6.1526,3.2993-8.6688-.336-.9036-1.3044-1.8176-1.7133-2.3679-1.8368Z"/>
      </g>
    </g>
    <path d="M791.069,914.7464c-3.3128,12.3589-40.9201,88.4811-51.9602,92.8182-11.946,4.6931-20.0522,2.1332-19.1989-4.2664.8533-6.3996,14.9325-41.8109,18.7722-58.8765,3.8398-17.0657,5.973-31.1448-8.1062-32.8514-14.0792-1.7066-46.7884-1.2799-46.7884-1.2799,0,0-18.4878,9.955-30.7182.8533s-15.0747-9.6705-19.6255-17.9189c-4.5508-8.2484-25.0296-18.7722-28.1583-24.4608-3.1287-5.6886-2.5598-10.8083-2.5598-10.8083,0,0,9.6705-9.3861,31.5715-1.4221,0,0,9.3861-9.3861,12.5148-10.8083,0,0-6.5418-23.8919,0-28.1583,0,0,17.9189,1.7066,29.2961,12.5148,11.3771,10.8083,16.2124,16.7812,23.6075,12.2304,7.3951-4.5508,189.9977-73.0979,222.9913,20.1944,0,0,7.3951,13.2259,0,44.7974-7.3951,31.5715,1.5644,69.5426,10.9505,89.5947,9.3861,20.0522-5.5463,14.0792-12.3726,5.973-6.8263-8.1062-18.3456-38.8244-18.3456-38.8244,0,0-14.5058,52.4769-24.3186,55.0368-9.8128,2.5598-13.2259-7.6795-9.3861-26.0251,3.8398-18.3456,5.1197-27.7317-1.7066-40.5309-6.7764-12.7058-19.0186-22.0482-23.3706-44.3043,0,0-1.3746-19.6919-16.7337-20.9718s-27.4852-5.5938-36.3546,27.4947Z"/>
    <path d="M902.9383,965.3124c-.2958,0-.5923-.1025-.8325-.3125-.5169-.4533-.5768-1.234-.1408-1.7602.0877-.1198,2.4328-3.5019-.2532-14.2458-2.9219-11.6889-5.2244-24.7662,1.3544-44.6471,6.2422-18.8668,7.5874-24.5772,7.6003-24.6328.1575-.6806.8393-1.1043,1.5169-.9462.6806.1569,1.1049.835.948,1.5156-.0531.2285-1.3655,5.8228-7.6639,24.8589-6.3657,19.2374-4.1337,31.9083-1.3013,43.239,3.059,12.2349.0747,16.0987-.2755,16.4989-.2501.2866-.6003.4323-.9524.4323Z"/>
    <g>
      <path class="cls-3" d="M679.7506,912.0836c-5.5885-.0832-12.3599,2.7598-15.9417-3.2272-3.0716-5.1343-3.5021-12.7958-3.6287-18.6182-.1422-6.5418-15.3591-20.9054-17.4923-24.7452-2.1332-3.8398,4.1242-6.5418,5.6886-1.5644,1.5644,4.9775,8.8173,13.3681,14.3637,18.6301,3.5052,3.3252,9.7947,2.7308,14.1927,2.4319,4.2937-.2917,12.2915-2.5386,15.7538.8259,1.1058,1.0746,1.7902,2.5214,2.193,4.0098,2.4635,9.1024-5.1033,22.4064-15.1291,22.2572Z"/>
      <path d="M671.3167,913.9494c-3.2647,0-6.4293-.8264-8.5934-4.4431-3.0992-5.1818-3.6643-12.6339-3.8082-19.2411-.0865-3.991-7.2829-12.2003-12.0447-17.6328-2.5371-2.8941-4.5413-5.1805-5.288-6.5257-.8288-1.4909-.7986-3.0745.084-4.3443.9147-1.3155,2.5544-2.0035,4.1775-1.7577,1.7522.268,3.1152,1.5601,3.739,3.5451,1.4063,4.474,8.121,12.4869,14.0278,18.0911,2.9534,2.8015,8.5675,2.4136,12.6691,2.1271l.567-.0395c.9128-.0618,2.0468-.2223,3.248-.394,4.6061-.6547,10.3394-1.4699,13.4732,1.5761,1.1623,1.1278,2.0146,2.6718,2.5328,4.5864,1.4458,5.3423-.2112,12.1299-4.2214,17.2894-3.34,4.2986-7.6571,6.6245-12.1472,6.5627h-.0006c-1.292-.0161-2.6903.1309-4.1541.2915-1.389.1507-2.8348.3088-4.2609.3088ZM645.1998,862.4863c-.5744,0-1.1469.2755-1.4563.7214-.4039.5793-.1958,1.229.05,1.6713.6164,1.1092,2.6384,3.4154,4.9792,6.0859,5.598,6.3861,12.5653,14.3335,12.6722,19.246.1359,6.2749.6528,13.3219,3.4494,17.996,2.2759,3.807,6.0439,3.3919,10.4086,2.9188,1.4761-.1618,3.009-.3249,4.4672-.3063,3.6939.0939,7.2711-1.9294,10.1122-5.5857,3.4858-4.4851,5.0033-10.5439,3.7767-15.0771-.3977-1.4687-1.0209-2.6236-1.8535-3.4314-2.2432-2.1814-7.2958-1.4637-11.3548-.8857-1.2476.1779-2.4266.3446-3.4321.4138l-.5633.0383c-4.5691.3175-10.8236.7523-14.5855-2.8151-5.9538-5.6487-13.0934-14.0568-14.7004-19.1682-.328-1.0438-.9344-1.6836-1.7077-1.8022-.0865-.0136-.1742-.0198-.2619-.0198Z"/>
    </g>
    <path class="cls-3" d="M669.1507,875.5797c-.3014,0-.5682-.2162-.6226-.5225-.0605-.3446.1698-.672.5139-.7325,2.4315-.4286,4.7074-1.7849,6.2434-3.7205,1.5354-1.9344,2.337-4.4592,2.2012-6.9259-.0198-.3483.2477-.6473.596-.6658.3533-.0482.6473.247.6664.5966.1538,2.7718-.7479,5.6079-2.4729,7.7807-1.7256,2.1765-4.2825,3.6995-7.0154,4.18-.0371.0074-.0735.0099-.1099.0099Z"/>
    <path class="cls-3" d="M644.9163,897.8816c-.289,0-.5781-.0136-.8659-.0408-.3483-.0334-.6034-.3422-.5701-.6893.0327-.3471.3428-.5917.6893-.5707,2.3685.2236,4.805-.63,6.5139-2.2852,1.7095-1.6564,2.6409-4.0626,2.4914-6.4367-.0222-.3483.2427-.6485.5917-.6707.3471-.0432.6485.2421.6707.5917.1723,2.7385-.9017,5.514-2.8744,7.4249-1.7627,1.7071-4.1967,2.6767-6.6467,2.6767Z"/>
    <path class="cls-4" d="M661.1191,826.1269c-2.3244-1.293-4.6685-2.408-6.353-3.289-1.0243-.5357-2.158-1.0621-3.2928-.8422-1.2359.2394-2.1606,1.3418-2.5545,2.5375-1.0279,3.1206-.2059,7.0225.3529,10.1256.6589,3.6589.7001,9.391,2.5067,12.6647,2.2939,4.1537,5.7587,1.705,7.8488-.9461,2.0206-2.5631,11.2986-10.6802,9.1181-14.1915-1.398-2.2512-4.4942-4.3166-7.6262-6.0589Z"/>
    <path class="cls-4" d="M615.2709,863.6053c-1.5063-.1928-7.1619-1.548-7.69.8789-.1999.9187.5416,1.7498,1.2257,2.3946,2.9395,2.7707,14.1683,15.8883,18.6337,14.5744.4717-.1388.843-.4947,1.1942-.8389,3.0797-3.0173,7.9013-6.8993,4.4984-10.6983-3.3342-3.7224-11.538-5.5011-17.8619-6.3108Z"/>
    <path class="cls-4" d="M677.4828,895.4715c.0434-1.3337-.3186-2.7342-1.2516-3.6882-.3324-.3398-.7481-.623-1.2188-.6893-.7266-.1023-1.4137.3181-2.0227.7275-.9807.6591-1.9495,1.3359-2.9058,2.03-1.0447.7582-2.0878,1.5498-2.8783,2.5702-.4274.5517-.7866,1.2077-.7579,1.905.0293.7112.4682,1.3583,1.0345,1.7896s1.2507.6761,1.9331.8787c.9369.2782,1.8953.4896,2.867.5946,1.5622.1688,3.869-.0136,4.6045-1.7032.2169-.4982.121-1.0379.1632-1.5641.0772-.9627.4012-1.877.4329-2.8507Z"/>
    <g>
      <path class="cls-3" d="M726.4103,982.9188c-3.3603,9.6248-6.136,17.6468-6.5004,20.3794-.8533,6.3996,7.2529,8.9595,19.1989,4.2664,3.3146-1.3022,9.0241-9.0752,15.4812-19.6505,0,0-5.8817,7.2779-12.068,4.0781-6.1863-3.1998-9.9135-11.4054-13.0126-10.2394l-3.0991,1.166Z"/>
      <path d="M728.1073,1011.2393c-2.9472,0-5.3924-.6658-7.0994-2.0023-1.8485-1.4477-2.6835-3.6167-2.3519-6.1057.3687-2.7644,2.8367-9.9633,6.5597-20.6282.1241-.3545.3984-.6361.7492-.7671l3.0992-1.1661c2.4439-.919,4.6024,1.4625,7.1007,4.2245,1.9819,2.1901,4.2282,4.6728,6.9382,6.0736,5.1898,2.6866,10.4525-3.6859,10.5043-3.7501.42-.5151,1.1698-.6201,1.712-.2347.5435.3842.6973,1.1228.3502,1.691-11.1213,18.2134-14.8671,19.6845-16.098,20.1675-4.2294,1.6614-8.1617,2.4976-11.4641,2.4976ZM727.4094,983.8951c-2.9269,8.3847-5.8914,16.9139-6.2459,19.5696-.2143,1.6107.2575,2.8818,1.4038,3.7798,2.245,1.7577,7.6473,2.4544,16.0789-.8572,1.3347-.5237,4.4511-3.0065,11.1145-13.1872-2.2605,1.0018-4.9841,1.381-7.8202-.084-3.1165-1.612-5.6308-4.3912-7.6516-6.6245-1.5595-1.7231-3.4982-3.8477-4.3344-3.555l-2.5452.9585Z"/>
    </g>
    <g>
      <path class="cls-3" d="M904.2849,967.5453c3.2373,8.2875,11.5915,28.9039,16.9999,35.3263,6.8263,8.1062,21.7587,14.0792,12.3726-5.973-6.9763-14.9038-13.7168-39.7065-13.6818-64.4231,0,0-20.5108-9.7276-17.8492,12.8063,0,0,3.586,14.3567.4573,18.4809l1.7013,3.7825Z"/>
      <path d="M933.5459,1011.7136c-4.1936,0-10.0356-4.2356-13.2286-8.0265-5.5023-6.5356-13.8518-27.0847-17.1992-35.6522l-1.6879-3.7538c-.1896-.4224-.134-.9141.1464-1.2834,2.0122-2.652.6522-12.0854-.6775-17.4092-.013-.0519-.0229-.105-.029-.1581-.8424-7.1359.4898-12.0175,3.9607-14.5089,5.8278-4.1862,15.2865.2211,15.6873.4113.4416.2088.7232.6547.7226,1.1438-.0364,25.6914,7.2829,50.4712,13.5621,63.8857,3.6983,7.9005,4.109,12.8426,1.2216,14.6893-.7164.457-1.5576.6621-2.4785.6621ZM904.0148,963.861l1.4236,3.1659c.0086.0198.0167.0383.0247.0581,3.2937,8.4316,11.5234,28.7177,16.7892,34.9716,4.2862,5.0916,10.5105,8.0784,12.4097,6.8629,1.2-.7671,1.2655-4.1874-2.1505-11.4851-6.3213-13.5047-13.6789-38.3166-13.7993-64.1241-2.1499-.8647-8.5897-3.0806-12.4097-.3323-2.6526,1.9084-3.6377,5.9723-2.9293,12.0768.4404,1.7812,3.2814,13.8678.6417,18.8063Z"/>
    </g>
    <g>
      <path class="cls-3" d="M870.7559,985.4472c-.4719,2.3607-.9519,4.8908-1.5214,7.6116-3.8398,18.3456-.4266,28.585,9.3861,26.0251,6.2242-1.6237,14.3367-23.331,19.4377-38.9905l3.4748-11.1774s-29.2558,8.9196-30.7772,16.5312Z"/>
      <path d="M875.84,1020.7332c-2.6983,0-4.4987-1.0808-5.6178-2.1468-4.1578-3.9601-4.9273-12.8772-2.2259-25.7865.3823-1.8269.7245-3.5673,1.0506-5.2275l.4688-2.3729h0c1.6231-8.1191,28.58-16.5582,31.6489-17.4932.4465-.1371.9344-.0148,1.2655.3175.3304.3323.4502.8202.3113,1.2673l-3.4747,11.1775c-8.1605,25.0503-14.9974,38.4488-20.3268,39.8396-1.1444.2977-2.1746.4249-3.0998.4249ZM870.7558,985.4478l1.2402.2483-.4669,2.3642c-.328,1.67-.672,3.4203-1.0561,5.2583-2.4414,11.6642-1.8973,20.2058,1.494,23.4359,1.5088,1.4366,3.639,1.8059,6.3342,1.1055,2.0122-.525,7.8486-5.2942,18.5549-38.1585l2.7515-8.8528c-11.0491,3.5933-26.6777,10.177-27.6116,14.8474l-1.2402-.2483Z"/>
    </g>
  </g>
</svg>